<svg xmlns="http://www.w3.org/2000/svg" viewBox="0 0 64 64" fill="none">
  <!-- Gator head silhouette -->
  <g>
    <!-- Main head shape -->
    <path d="M8 28c0-12 8-20 22-20c10 0 18 4 22 10c3 4 4 9 4 14c0 4-1 7-3 9l-8 6H18l-6-4c-3-3-4-7-4-15z" fill="#FA4616"/>
    <!-- Snout / jaw -->
    <path d="M48 32c2 0 5 1 7 3c1 1 1 3 0 4l-10 6H20l-6-4c-1-1-1-3 0-4c2-2 4-3 6-3h28z" fill="#E03D10"/>
    <!-- Eye left -->
    <circle cx="24" cy="24" r="5" fill="white"/>
    <circle cx="25" cy="23" r="2.5" fill="#0021A5"/>
    <!-- Eye right -->
    <circle cx="40" cy="24" r="5" fill="white"/>
    <circle cx="41" cy="23" r="2.5" fill="#0021A5"/>
    <!-- Teeth -->
    <path d="M22 35l2-3 2 3 2-3 2 3 2-3 2 3 2-3 2 3 2-3 2 3 2-3 2 3" stroke="white" stroke-width="1.5" stroke-linecap="round" stroke-linejoin="round" fill="none"/>
    <!-- Nostrils -->
    <circle cx="18" cy="30" r="1.5" fill="#C43510"/>
    <circle cx="14" cy="30" r="1.5" fill="#C43510"/>
  </g>
</svg>
